<svg width="33" height="33" viewBox="0 0 33 33" fill="none" xmlns="http://www.w3.org/2000/svg">
<rect width="32.5714" height="32.5714" rx="4.78992" fill="#F16521" fill-opacity="0.12"/>
<path d="M18.54 22.814L18.06 18.971C17.992 18.4267 17.7275 17.9259 17.3162 17.563C16.9049 17.2 16.3751 16.9998 15.8265 17H14.1735C13.6252 17.0002 13.0959 17.2005 12.6849 17.5635C12.2739 17.9264 12.0095 18.4269 11.9415 18.971L11.4608 22.814C11.4344 23.0251 11.4532 23.2395 11.5161 23.4428C11.5789 23.6461 11.6842 23.8337 11.8251 23.9931C11.966 24.1526 12.1391 24.2803 12.3331 24.3676C12.5271 24.455 12.7375 24.5002 12.9503 24.5H17.0513C17.264 24.5 17.4743 24.4549 17.6682 24.3674C17.8621 24.28 18.0352 24.1523 18.176 23.9928C18.3168 23.8334 18.4221 23.6458 18.4848 23.4426C18.5476 23.2393 18.5664 23.0251 18.54 22.814V22.814Z" stroke="#F16521" stroke-width="2" stroke-linecap="round" stroke-linejoin="round"/>
<path d="M15 14C16.2426 14 17.25 12.9926 17.25 11.75C17.25 10.5074 16.2426 9.5 15 9.5C13.7574 9.5 12.75 10.5074 12.75 11.75C12.75 12.9926 13.7574 14 15 14Z" stroke="#F16521" stroke-width="2"/>
<path d="M9 16.25C9.82843 16.25 10.5 15.5784 10.5 14.75C10.5 13.9216 9.82843 13.25 9 13.25C8.17157 13.25 7.5 13.9216 7.5 14.75C7.5 15.5784 8.17157 16.25 9 16.25Z" stroke="#F16521" stroke-width="2"/>
<path d="M21 16.25C21.8284 16.25 22.5 15.5784 22.5 14.75C22.5 13.9216 21.8284 13.25 21 13.25C20.1716 13.25 19.5 13.9216 19.5 14.75C19.5 15.5784 20.1716 16.25 21 16.25Z" stroke="#F16521" stroke-width="2"/>
<path d="M8.99897 18.5H8.76947C8.41439 18.5 8.07081 18.6259 7.79985 18.8554C7.52889 19.0848 7.34813 19.403 7.28972 19.7532L7.03997 21.2532C7.00412 21.4682 7.01553 21.6883 7.07339 21.8984C7.13125 22.1084 7.23418 22.3033 7.37501 22.4696C7.51584 22.6358 7.6912 22.7694 7.88889 22.861C8.08657 22.9526 8.30184 23 8.51972 23H11.249M20.999 18.5H21.2285C21.5835 18.5 21.9271 18.6259 22.1981 18.8554C22.469 19.0848 22.6498 19.403 22.7082 19.7532L22.958 21.2532C22.9938 21.4682 22.9824 21.6883 22.9245 21.8984C22.8667 22.1084 22.7638 22.3033 22.6229 22.4696C22.4821 22.6358 22.3067 22.7694 22.109 22.861C21.9114 22.9526 21.6961 23 21.4782 23H18.749" stroke="#F16521" stroke-width="2" stroke-linecap="round" stroke-linejoin="round"/>
</svg>
