<svg width="33" height="33" viewBox="0 0 33 33" fill="none" xmlns="http://www.w3.org/2000/svg">
<rect width="32.5714" height="32.5714" rx="4.78992" fill="#F16521" fill-opacity="0.12"/>
<path fill-rule="evenodd" clip-rule="evenodd" d="M10.012 12.4604C10.012 10.3604 11.6685 8.71045 13.7769 8.71045C15.8853 8.71045 17.5419 10.3604 17.5419 12.4604C17.5419 14.5604 15.8853 16.2104 13.7769 16.2104C11.6685 16.2104 10.012 14.5604 10.012 12.4604ZM20.5538 21.4604V22.9604C20.5538 23.4104 20.2526 23.7104 19.8008 23.7104C19.349 23.7104 19.0478 23.4104 19.0478 22.9604V21.4604C19.0478 20.1854 18.0689 19.2104 16.7889 19.2104H10.7649C9.48487 19.2104 8.50598 20.1854 8.50598 21.4604V22.9604C8.50598 23.4104 8.20478 23.7104 7.75299 23.7104C7.3012 23.7104 7 23.4104 7 22.9604V21.4604C7 19.3604 8.65658 17.7104 10.7649 17.7104H16.7889C18.8972 17.7104 20.5538 19.3604 20.5538 21.4604ZM13.7769 14.7104C12.4968 14.7104 11.5179 13.7354 11.5179 12.4604C11.5179 11.1854 12.4968 10.2104 13.7769 10.2104C15.057 10.2104 16.0359 11.1854 16.0359 12.4604C16.0359 13.7354 15.057 14.7104 13.7769 14.7104ZM22.2104 17.8604C21.8339 17.7854 21.3821 18.0104 21.3068 18.3854C21.2315 18.7604 21.4574 19.2104 21.8339 19.2854C22.8128 19.5104 23.4905 20.4104 23.4905 21.4604V22.9604C23.4905 23.4104 23.7917 23.7104 24.2435 23.7104C24.6953 23.7104 24.9965 23.4104 24.9965 22.9604V21.4604C25.0718 19.7354 23.9423 18.2354 22.2104 17.8604ZM18.2948 9.38545C18.4454 8.93545 18.8219 8.71045 19.1984 8.86045C21.2315 9.31045 22.4363 11.4104 21.9092 13.5104C21.608 14.8604 20.5538 15.8354 19.1984 16.2104H19.0478C18.6713 16.2104 18.3701 15.9854 18.2948 15.6104C18.1442 15.2354 18.4454 14.7854 18.8219 14.7104C19.6502 14.4854 20.2526 13.8854 20.4785 13.0604C20.7797 11.7854 20.0267 10.5854 18.8219 10.2854C18.4454 10.2104 18.2195 9.76045 18.2948 9.38545Z" fill="black"/>
<mask id="mask0_1055_46588" style="mask-type:alpha" maskUnits="userSpaceOnUse" x="7" y="8" width="18" height="16">
<path fill-rule="evenodd" clip-rule="evenodd" d="M10.012 12.4604C10.012 10.3604 11.6685 8.71045 13.7769 8.71045C15.8853 8.71045 17.5419 10.3604 17.5419 12.4604C17.5419 14.5604 15.8853 16.2104 13.7769 16.2104C11.6685 16.2104 10.012 14.5604 10.012 12.4604ZM20.5538 21.4604V22.9604C20.5538 23.4104 20.2526 23.7104 19.8008 23.7104C19.349 23.7104 19.0478 23.4104 19.0478 22.9604V21.4604C19.0478 20.1854 18.0689 19.2104 16.7889 19.2104H10.7649C9.48487 19.2104 8.50598 20.1854 8.50598 21.4604V22.9604C8.50598 23.4104 8.20478 23.7104 7.75299 23.7104C7.3012 23.7104 7 23.4104 7 22.9604V21.4604C7 19.3604 8.65658 17.7104 10.7649 17.7104H16.7889C18.8972 17.7104 20.5538 19.3604 20.5538 21.4604ZM13.7769 14.7104C12.4968 14.7104 11.5179 13.7354 11.5179 12.4604C11.5179 11.1854 12.4968 10.2104 13.7769 10.2104C15.057 10.2104 16.0359 11.1854 16.0359 12.4604C16.0359 13.7354 15.057 14.7104 13.7769 14.7104ZM22.2104 17.8604C21.8339 17.7854 21.3821 18.0104 21.3068 18.3854C21.2315 18.7604 21.4574 19.2104 21.8339 19.2854C22.8128 19.5104 23.4905 20.4104 23.4905 21.4604V22.9604C23.4905 23.4104 23.7917 23.7104 24.2435 23.7104C24.6953 23.7104 24.9965 23.4104 24.9965 22.9604V21.4604C25.0718 19.7354 23.9423 18.2354 22.2104 17.8604ZM18.2948 9.38545C18.4454 8.93545 18.8219 8.71045 19.1984 8.86045C21.2315 9.31045 22.4363 11.4104 21.9092 13.5104C21.608 14.8604 20.5538 15.8354 19.1984 16.2104H19.0478C18.6713 16.2104 18.3701 15.9854 18.2948 15.6104C18.1442 15.2354 18.4454 14.7854 18.8219 14.7104C19.6502 14.4854 20.2526 13.8854 20.4785 13.0604C20.7797 11.7854 20.0267 10.5854 18.8219 10.2854C18.4454 10.2104 18.2195 9.76045 18.2948 9.38545Z" fill="white"/>
</mask>
<g mask="url(#mask0_1055_46588)">
<rect x="7" y="7.21045" width="18" height="18" fill="#F16521"/>
</g>
</svg>
