<svg width="33" height="33" viewBox="0 0 33 33" fill="none" xmlns="http://www.w3.org/2000/svg">
<rect width="32.5714" height="32.5714" rx="4.78992" fill="#F16521" fill-opacity="0.12"/>
<path d="M6 8V9.8H25.8V24.2H13.2V26H29.4V24.2H27.6V8H6ZM9.6018 10.7C8.64788 10.7033 7.73394 11.0836 7.05924 11.758C6.38454 12.4323 6.00379 13.3461 6 14.3C6 16.2791 7.6236 17.9 9.6018 17.9C10.5552 17.8962 11.4685 17.5156 12.1426 16.8413C12.8166 16.1669 13.1967 15.2534 13.2 14.3C13.2 12.3227 11.5782 10.7 9.6018 10.7ZM15 11.6V13.4H19.5V11.6H15ZM21.3 11.6V13.4H24V11.6H21.3ZM9.6018 12.5C10.6044 12.5 11.4 13.2947 11.4 14.3C11.4 15.308 10.6053 16.1 9.6018 16.1C8.5938 16.1 7.8 15.308 7.8 14.3C7.8 13.2947 8.5947 12.5 9.6018 12.5ZM15 15.2V17H24V15.2H15ZM6 18.8V26H7.8V20.6H10.5V26H12.3V21.1922L14.1576 22.175C14.6841 22.454 15.3168 22.4531 15.8424 22.175V22.1768L19.0194 20.4965L18.1797 18.9035L15.0018 20.5838L12.2154 19.1132C11.8265 18.9078 11.3934 18.8002 10.9536 18.8H6Z" fill="#F16521"/>
</svg>
